<?xml version="1.0" encoding="UTF-8"?>
<svg version="1.1" xmlns="http://www.w3.org/2000/svg" width="165" height="131">
<path d="M0 0 C54.45 0 108.9 0 165 0 C165 43.23 165 86.46 165 131 C110.55 131 56.1 131 0 131 C0 87.77 0 44.54 0 0 Z " fill="#7C7C7C" transform="translate(0,0)"/>
<path d="M0 0 C54.45 0 108.9 0 165 0 C165 17.82 165 35.64 165 54 C153.12 54.495 153.12 54.495 141 55 C140.01 55.495 140.01 55.495 139 56 C136.96839528 56.12037961 134.9329256 56.17739122 132.89794922 56.20532227 C131.61677216 56.22526749 130.33559509 56.24521271 129.01559448 56.26576233 C127.61196006 56.28274669 126.20832437 56.29962549 124.8046875 56.31640625 C123.37264403 56.3369754 121.94060663 56.35797186 120.50857544 56.37937927 C116.73733437 56.43460403 112.96603848 56.48401147 109.19470215 56.53222656 C105.34719964 56.58243867 101.49977687 56.63812624 97.65234375 56.69335938 C90.10163 56.80094587 82.55085 56.90238971 75 57 C75 56.34 75 55.68 75 55 C64.77 54.67 54.54 54.34 44 54 C44 53.67 44 53.34 44 53 C55.22 53 66.44 53 78 53 C78 52.34 78 51.68 78 51 C59.19 50.505 59.19 50.505 40 50 C40.33 49.01 40.66 48.02 41 47 C41 46.01 41 45.02 41 44 C41.33 43.01 41.66 42.02 42 41 C57.51 41 73.02 41 89 41 C89 40.34 89 39.68 89 39 C73.49 39 57.98 39 42 39 C41.67 39.99 41.34 40.98 41 42 C38.18743719 42.02684312 35.37512759 42.04676188 32.5625 42.0625 C31.76005859 42.07087891 30.95761719 42.07925781 30.13085938 42.08789062 C28.08704779 42.0965143 26.04316098 42.0522815 24 42 C23.505 41.505 23.505 41.505 23 41 C21.29436222 40.84259395 19.58272756 40.74906608 17.87109375 40.68359375 C16.93966553 40.64548584 16.0082373 40.60737793 15.04858398 40.56811523 C13.85692627 40.52501221 12.66526855 40.48190918 11.4375 40.4375 C7.663125 40.293125 3.88875 40.14875 0 40 C0 26.8 0 13.6 0 0 Z M28 32 C28 32.33 28 32.66 28 33 C31.3 33 34.6 33 38 33 C38 33.66 38 34.32 38 35 C39.32 35 40.64 35 42 35 C42 34.34 42 33.68 42 33 C59.16 33 76.32 33 94 33 C94 32.67 94 32.34 94 32 C72.22 32 50.44 32 28 32 Z M31.4375 35.5 C30.42558594 35.5928125 29.41367187 35.685625 28.37109375 35.78125 C27.58863281 35.8534375 26.80617188 35.925625 26 36 C26 36.66 26 37.32 26 38 C25.01 38.495 25.01 38.495 24 39 C24 39.66 24 40.32 24 41 C27.96 41 31.92 41 36 41 C36.33 39.68 36.66 38.36 37 37 C38.65 37 40.3 37 42 37 C37.88288839 34.87503917 36.09319498 35.07189012 31.4375 35.5 Z " fill="#242424" transform="translate(0,0)"/>
<path d="M0 0 C21.78 0 43.56 0 66 0 C66 0.33 66 0.66 66 1 C48.84 1 31.68 1 14 1 C14 1.66 14 2.32 14 3 C12.68 3 11.36 3 10 3 C10 2.34 10 1.68 10 1 C6.7 1 3.4 1 0 1 C0 0.67 0 0.34 0 0 Z M14 4 C14 4.33 14 4.66 14 5 C12.35 5 10.7 5 9 5 C8.67 6.32 8.34 7.64 8 9 C4.04 9 0.08 9 -4 9 C-4 7 -4 7 -2 5 C-2 4.67 -2 4.34 -2 4 C-0.27185839 3.80327635 1.45759197 3.61803201 3.1875 3.4375 C4.15042969 3.33308594 5.11335938 3.22867188 6.10546875 3.12109375 C8.94233377 3.00241249 11.25423671 3.32234361 14 4 Z M10 6 C27.49 6 44.98 6 63 6 C62.34 6.33 61.68 6.66 61 7 C60.9175 7.5775 60.835 8.155 60.75 8.75 C59.58392971 12.24821087 56.82753118 13.749516 54 16 C53.34 16.99 52.68 17.98 52 19 C51.34 19 50.68 19 50 19 C50 19.66 50 20.32 50 21 C49.34 21.66 48.68 22.32 48 23 C48 23.33 48 23.66 48 24 C56.17972535 23.89257229 64.35935555 23.77995404 72.53891563 23.66066074 C76.33678642 23.60543556 80.1346649 23.55201622 83.93261719 23.50268555 C87.59607367 23.45503599 91.25943546 23.402693 94.92277908 23.34705925 C96.32222773 23.32663837 97.72170235 23.30792483 99.12119675 23.29092598 C101.07744014 23.26687639 103.03359949 23.23625878 104.98974609 23.20532227 C106.66186661 23.18200584 106.66186661 23.18200584 108.36776733 23.15821838 C110.97890829 23.17418855 110.97890829 23.17418855 113 22 C114.81341842 21.91528636 116.62994161 21.89278917 118.4453125 21.90234375 C119.52167969 21.90556641 120.59804687 21.90878906 121.70703125 21.91210938 C122.83496094 21.92048828 123.96289062 21.92886719 125.125 21.9375 C126.26066406 21.94201172 127.39632812 21.94652344 128.56640625 21.95117188 C131.37762647 21.96298372 134.18881972 21.98091959 137 22 C137 27.61 137 33.22 137 39 C128.42 39 119.84 39 111 39 C111 39.66 111 40.32 111 41 C101.1 41 91.2 41 81 41 C81 39.35 81 37.7 81 36 C80.505 36.495 80.505 36.495 80 37 C77.98035801 37.07244053 75.95832876 37.08377188 73.9375 37.0625 C72.83277344 37.05347656 71.72804688 37.04445313 70.58984375 37.03515625 C69.73519531 37.02355469 68.88054687 37.01195313 68 37 C67.67 38.32 67.34 39.64 67 41 C55.12 41 43.24 41 31 41 C31 41.66 31 42.32 31 43 C11.53 43 -7.94 43 -28 43 C-28 31.45 -28 19.9 -28 8 C-24.225625 7.979375 -20.45125 7.95875 -16.5625 7.9375 C-15.37084229 7.928396 -14.17918457 7.91929199 -12.95141602 7.90991211 C-11.55427368 7.90616577 -11.55427368 7.90616577 -10.12890625 7.90234375 C-9.17056885 7.89710693 -8.21223145 7.89187012 -7.22485352 7.88647461 C-5 8 -5 8 -4 9 C-1.64686445 9.07271741 0.70833668 9.08370868 3.0625 9.0625 C4.35285156 9.05347656 5.64320312 9.04445312 6.97265625 9.03515625 C7.97167969 9.02355469 8.97070312 9.01195312 10 9 C10 8.01 10 7.02 10 6 Z " fill="#606060" transform="translate(28,32)"/>
<path d="M0 0 C15.84 0 31.68 0 48 0 C48 8.58 48 17.16 48 26 C-6.45 26 -60.9 26 -117 26 C-117 18.74 -117 11.48 -117 4 C-79.38 4 -41.76 4 -3 4 C-3 3.34 -3 2.68 -3 2 C-2.01 2 -1.02 2 0 2 C0 1.34 0 0.68 0 0 Z " fill="#7E7E7E" transform="translate(117,105)"/>
<path d="M0 0 C54.45 0 108.9 0 165 0 C165 7.59 165 15.18 165 23 C156.75 23 148.5 23 140 23 C140 23.66 140 24.32 140 25 C126.8 25 113.6 25 100 25 C100.66 23.02 101.32 21.04 102 19 C101.34 18.67 100.68 18.34 100 18 C100 18.99 100 19.98 100 21 C76.24 21 52.48 21 28 21 C28 21.66 28 22.32 28 23 C18.76 23 9.52 23 0 23 C0 15.41 0 7.82 0 0 Z " fill="#121212" transform="translate(0,0)"/>
<path d="M0 0 C9.57 0 19.14 0 29 0 C29 1.65 29 3.3 29 5 C29.99 5.495 29.99 5.495 31 6 C31 5.34 31 4.68 31 4 C39.58 4 48.16 4 57 4 C57 9.61 57 15.22 57 21 C55.15736572 21.02505615 53.31473145 21.0501123 51.41625977 21.07592773 C45.34130184 21.15968302 39.26642282 21.24795456 33.19157505 21.33933926 C29.5068981 21.39460165 25.82221327 21.44802679 22.13745117 21.49731445 C18.58422159 21.54490932 15.03109125 21.59725007 11.47797966 21.65294075 C10.11957189 21.6733865 8.76113688 21.69209585 7.40268135 21.70907402 C5.50610295 21.73306877 3.60961201 21.76370332 1.71313477 21.79467773 C0.63169693 21.81022202 -0.44974091 21.8257663 -1.56394958 21.84178162 C-3.94751051 21.72758019 -3.94751051 21.72758019 -5 23 C-6.34072817 23.09527037 -7.68642503 23.1218877 -9.03053284 23.12025452 C-9.89856537 23.12162918 -10.7665979 23.12300385 -11.66093445 23.12442017 C-12.62046524 23.12082489 -13.57999603 23.11722961 -14.56860352 23.11352539 C-15.57336731 23.11367142 -16.5781311 23.11381744 -17.61334229 23.1139679 C-20.95188517 23.1132683 -24.29037305 23.10547374 -27.62890625 23.09765625 C-29.93676218 23.09579224 -32.24461851 23.09436826 -34.55247498 23.09336853 C-40.64017826 23.08954204 -46.72785786 23.07971065 -52.81555176 23.06866455 C-59.02221354 23.05845323 -65.22887913 23.05387151 -71.43554688 23.04882812 C-83.62370835 23.0380885 -95.81185221 23.02101052 -108 23 C-108 18.05 -108 13.1 -108 8 C-88.53 8 -69.06 8 -49 8 C-49 7.34 -49 6.68 -49 6 C-37.12 6 -25.24 6 -13 6 C-12.67 4.68 -12.34 3.36 -12 2 C-8.04 2 -4.08 2 0 2 C0 1.34 0 0.68 0 0 Z " fill="#5A5A5A" transform="translate(108,67)"/>
<path d="M0 0 C1.62215675 0.00333092 1.62215675 0.00333092 3.27708435 0.00672913 C4.49827469 0.00680466 5.71946503 0.00688019 6.97766113 0.00695801 C8.32022644 0.0120654 9.66279134 0.01728141 11.00535583 0.02259827 C12.37156116 0.02446252 13.73776716 0.02588639 15.10397339 0.02688599 C18.70596654 0.03071058 22.30791959 0.04054035 25.90989685 0.05158997 C29.58298703 0.06180536 33.25608368 0.06638388 36.92918396 0.07142639 C44.14079081 0.08216268 51.35236459 0.09923838 58.56394958 0.12025452 C58.56394958 2.76025452 58.56394958 5.40025452 58.56394958 8.12025452 C57.68738205 8.1323848 57.68738205 8.1323848 56.79310608 8.14476013 C50.72625984 8.23063016 44.65974699 8.33012526 38.59324646 8.43763733 C36.32735277 8.47598722 34.06139694 8.51082934 31.7953949 8.54212952 C28.54354092 8.58764978 25.29211698 8.64566527 22.04051208 8.70619202 C21.02276703 8.71774323 20.00502197 8.72929443 18.95643616 8.74119568 C18.01561188 8.76106537 17.0747876 8.78093506 16.10545349 8.80140686 C15.27494476 8.81473053 14.44443604 8.8280542 13.58876038 8.84178162 C11.33781344 8.94360993 11.33781344 8.94360993 9.56394958 11.12025452 C9.06894958 10.13025452 9.06894958 10.13025452 8.56394958 9.12025452 C6.56440212 9.07771095 4.56353322 9.07944669 2.56394958 9.12025452 C2.23394958 9.45025452 1.90394958 9.78025452 1.56394958 10.12025452 C0.15983642 10.21572382 -1.2490485 10.2421398 -2.65640259 10.24050903 C-3.56650589 10.2418837 -4.47660919 10.24325836 -5.41429138 10.24467468 C-6.42057587 10.24107941 -7.42686035 10.23748413 -8.46363831 10.23377991 C-9.51716995 10.23392593 -10.5707016 10.23407196 -11.65615845 10.23422241 C-15.15702842 10.23352277 -18.65784593 10.225728 -22.15870667 10.21791077 C-24.57866385 10.21604677 -26.99862141 10.21462278 -29.4185791 10.21362305 C-35.80220066 10.20979643 -42.18579963 10.19996493 -48.56941223 10.18891907 C-55.07768956 10.17870802 -61.58597052 10.17412609 -68.09425354 10.16908264 C-80.87486216 10.15834279 -93.65545509 10.14145563 -106.43605042 10.12025452 C-106.43605042 7.48025452 -106.43605042 4.84025452 -106.43605042 2.12025452 C-105.14787918 2.10994705 -103.85970795 2.09963959 -102.53250122 2.08901978 C-90.42137578 1.99146878 -78.31030383 1.88875257 -66.19926548 1.78091526 C-59.97214127 1.72563638 -53.74501242 1.67220859 -47.51783752 1.62294006 C-41.51374 1.57536957 -35.50970163 1.5230297 -29.50567436 1.46731377 C-27.20945131 1.44685695 -24.91321201 1.42814951 -22.61696053 1.4111805 C-19.41279828 1.38720987 -16.20874902 1.35714565 -13.00465393 1.32557678 C-12.04512314 1.31982132 -11.08559235 1.31406586 -10.09698486 1.30813599 C-8.79493607 1.29345276 -8.79493607 1.29345276 -7.46658325 1.2784729 C-6.70794763 1.27202035 -5.949312 1.2655678 -5.16768742 1.25891972 C-2.76033264 1.06614471 -2.64721691 0.13067865 0 0 Z " fill="#7E7E7E" transform="translate(106.43605041503906,87.87974548339844)"/>
<path d="M0 0 C0.9583374 0.00523682 1.9166748 0.01047363 2.90405273 0.01586914 C4.45576172 0.02070313 4.45576172 0.02070313 6.03881836 0.02563477 C7.12743164 0.03401367 8.21604492 0.04239258 9.33764648 0.05102539 C10.97636719 0.05779297 10.97636719 0.05779297 12.64819336 0.06469727 C15.3572008 0.07652699 18.06618028 0.09446308 20.77514648 0.11352539 C20.77514648 7.04352539 20.77514648 13.97352539 20.77514648 21.11352539 C12.52514648 21.11352539 4.27514648 21.11352539 -4.22485352 21.11352539 C-4.22485352 21.77352539 -4.22485352 22.43352539 -4.22485352 23.11352539 C-17.42485352 23.11352539 -30.62485352 23.11352539 -44.22485352 23.11352539 C-43.56485352 21.13352539 -42.90485352 19.15352539 -42.22485352 17.11352539 C-45.13586957 15.65801736 -47.7180255 15.94841549 -50.96948242 15.90820312 C-51.66227798 15.89830353 -52.35507355 15.88840393 -53.06886292 15.87820435 C-55.3630123 15.84657042 -57.65718241 15.82182453 -59.95141602 15.79711914 C-61.54040063 15.77655124 -63.12937976 15.75555481 -64.71835327 15.73414612 C-68.90388546 15.67890849 -73.08946717 15.6295067 -77.27508545 15.58129883 C-81.54484472 15.53109614 -85.81453194 15.47540365 -90.08422852 15.42016602 C-98.46437596 15.31256376 -106.84458362 15.2111234 -115.22485352 15.11352539 C-115.55485352 14.12352539 -115.88485352 13.13352539 -116.22485352 12.11352539 C-114.86302193 12.12351814 -114.86302193 12.12351814 -113.47367859 12.13371277 C-104.92456154 12.19378293 -96.37551521 12.23947894 -87.82623577 12.26896191 C-83.43077796 12.28462889 -79.0354943 12.30588583 -74.64013672 12.33984375 C-70.39966428 12.37240063 -66.15935951 12.39037063 -61.91877174 12.39815712 C-60.29960299 12.40370726 -58.68044358 12.41454518 -57.06134605 12.43071556 C-54.79622829 12.45244156 -52.53180648 12.45549442 -50.26660156 12.45410156 C-48.97642624 12.4607634 -47.68625092 12.46742523 -46.35697937 12.47428894 C-43.27937209 12.36536235 -43.27937209 12.36536235 -41.32771301 10.82270813 C-39.57864056 8.11204149 -39.52268717 5.27056211 -39.22485352 2.11352539 C-38.13954346 2.08846924 -37.0542334 2.06341309 -35.93603516 2.03759766 C-31.92353752 1.94368784 -27.91121969 1.84342773 -23.89892578 1.74121094 C-22.15971064 1.69779966 -20.42045116 1.65612927 -18.68115234 1.61621094 C-16.18646863 1.55865771 -13.69200942 1.49492119 -11.19750977 1.42993164 C-10.415215 1.41321915 -9.63292023 1.39650665 -8.82691956 1.37928772 C-5.48697338 1.28685176 -3.00282725 0.15322228 0 0 Z " fill="#8C8C8C" transform="translate(144.224853515625,1.886474609375)"/>
<path d="M0 0 C9.57 0 19.14 0 29 0 C29 1.65 29 3.3 29 5 C29.99 5.495 29.99 5.495 31 6 C31 5.34 31 4.68 31 4 C39.58 4 48.16 4 57 4 C57 4.99 57 5.98 57 7 C43.635 7.495 43.635 7.495 30 8 C29.67 8.99 29.34 9.98 29 11 C27.85934082 11.02505615 26.71868164 11.0501123 25.54345703 11.07592773 C21.32035659 11.16994293 17.09742291 11.27017787 12.87451172 11.37231445 C11.04512425 11.41568565 9.21569573 11.45735911 7.38623047 11.49731445 C4.75996514 11.55496418 2.1339069 11.61867365 -0.4921875 11.68359375 C-1.31306854 11.70030624 -2.13394958 11.71701874 -2.97970581 11.73423767 C-7.1233696 11.7431387 -7.1233696 11.7431387 -11 13 C-14.05140373 13.09353676 -17.0798561 13.12571763 -20.13134766 13.11352539 C-21.07773605 13.11367142 -22.02412445 13.11381744 -22.99919128 13.1139679 C-26.13750475 13.11326942 -29.27575937 13.10548002 -32.4140625 13.09765625 C-34.58596769 13.09579184 -36.75787329 13.09436805 -38.92977905 13.09336853 C-44.65414587 13.08954516 -50.37848742 13.07971639 -56.10284424 13.06866455 C-61.94095518 13.05844657 -67.7790702 13.05387008 -73.6171875 13.04882812 C-85.07813611 13.03809398 -96.53906596 13.0210197 -108 13 C-108 11.35 -108 9.7 -108 8 C-88.53 8 -69.06 8 -49 8 C-49 7.34 -49 6.68 -49 6 C-37.12 6 -25.24 6 -13 6 C-12.67 4.68 -12.34 3.36 -12 2 C-8.04 2 -4.08 2 0 2 C0 1.34 0 0.68 0 0 Z " fill="#565656" transform="translate(108,67)"/>
<path d="M0 0 C1.00023193 0.00523682 2.00046387 0.01047363 3.03100586 0.01586914 C4.1105957 0.0190918 5.19018555 0.02231445 6.30249023 0.02563477 C8.00695312 0.03820312 8.00695312 0.03820312 9.74584961 0.05102539 C11.45611328 0.05779297 11.45611328 0.05779297 13.20092773 0.06469727 C16.02842379 0.07652779 18.85589306 0.09446389 21.68334961 0.11352539 C21.68334961 5.72352539 21.68334961 11.33352539 21.68334961 17.11352539 C-4.38665039 17.11352539 -30.45665039 17.11352539 -57.31665039 17.11352539 C-54.31665039 12.11352539 -54.31665039 12.11352539 -52.81665039 10.73852539 C-50.51958337 8.25003611 -49.60058482 5.21636693 -48.31665039 2.11352539 C-47.75510757 2.10321793 -47.19356476 2.09291046 -46.61500549 2.08229065 C-40.79171573 1.97444854 -34.96858775 1.85983332 -29.14550781 1.74121094 C-26.96976086 1.69779032 -24.79397825 1.65612068 -22.61816406 1.61621094 C-19.49801871 1.55868037 -16.37805406 1.49493717 -13.25805664 1.42993164 C-12.27889786 1.41321915 -11.29973907 1.39650665 -10.29090881 1.37928772 C-9.39005051 1.3593425 -8.4891922 1.33939728 -7.56103516 1.31884766 C-6.36523582 1.29553123 -6.36523582 1.29553123 -5.14527893 1.27174377 C-2.72742781 1.0625441 -2.58502209 0.12667671 0 0 Z " fill="#ACACAC" transform="translate(143.316650390625,31.886474609375)"/>
<path d="M0 0 C21.78 0 43.56 0 66 0 C66 0.33 66 0.66 66 1 C48.84 1 31.68 1 14 1 C14 1.66 14 2.32 14 3 C12.68 3 11.36 3 10 3 C10 2.34 10 1.68 10 1 C6.7 1 3.4 1 0 1 C0 0.67 0 0.34 0 0 Z M14 4 C14 4.33 14 4.66 14 5 C12.35 5 10.7 5 9 5 C8.67 6.32 8.34 7.64 8 9 C4.04 9 0.08 9 -4 9 C-4 7 -4 7 -2 5 C-2 4.67 -2 4.34 -2 4 C-0.27185839 3.80327635 1.45759197 3.61803201 3.1875 3.4375 C4.15042969 3.33308594 5.11335938 3.22867188 6.10546875 3.12109375 C8.94233377 3.00241249 11.25423671 3.32234361 14 4 Z M10 6 C27.49 6 44.98 6 63 6 C62.34 6.33 61.68 6.66 61 7 C60.9175 7.5775 60.835 8.155 60.75 8.75 C59.57256548 12.28230357 56.89325567 13.72233065 54 16 C54 16.33 54 16.66 54 17 C52.76846191 17.02505615 51.53692383 17.0501123 50.26806641 17.07592773 C45.70952507 17.16992612 41.15113882 17.27016515 36.59277344 17.37231445 C34.61787538 17.41569203 32.64293913 17.457365 30.66796875 17.49731445 C27.8332161 17.55494873 24.99865622 17.6186627 22.1640625 17.68359375 C20.83430893 17.70866249 20.83430893 17.70866249 19.47769165 17.73423767 C15.10074845 17.71085211 15.10074845 17.71085211 11 19 C11 19.66 11 20.32 11 21 C9.35 21 7.7 21 6 21 C6 20.34 6 19.68 6 19 C2.04 19 -1.92 19 -6 19 C-5.67 17.35 -5.34 15.7 -5 14 C-5.33 14.33 -5.66 14.66 -6 15 C-7.63472882 15.08700342 -9.27314055 15.10701063 -10.91015625 15.09765625 C-11.89951172 15.09443359 -12.88886719 15.09121094 -13.90820312 15.08789062 C-14.94912109 15.07951172 -15.99003906 15.07113281 -17.0625 15.0625 C-18.10728516 15.05798828 -19.15207031 15.05347656 -20.22851562 15.04882812 C-22.8190666 15.03699913 -25.40950559 15.02051689 -28 15 C-28 12.69 -28 10.38 -28 8 C-24.18751574 7.97112764 -20.3750593 7.95324508 -16.5625 7.9375 C-15.47388672 7.92912109 -14.38527344 7.92074219 -13.26367188 7.91210938 C-12.22919922 7.90888672 -11.19472656 7.90566406 -10.12890625 7.90234375 C-9.17056885 7.89710693 -8.21223145 7.89187012 -7.22485352 7.88647461 C-5 8 -5 8 -4 9 C-1.64686445 9.07271741 0.70833668 9.08370868 3.0625 9.0625 C4.35285156 9.05347656 5.64320312 9.04445312 6.97265625 9.03515625 C7.97167969 9.02355469 8.97070312 9.01195312 10 9 C10 8.01 10 7.02 10 6 Z M9 11 C9.33 11.66 9.66 12.32 10 13 C10.66 12.34 11.32 11.68 12 11 C11.01 11 10.02 11 9 11 Z M-6 20 C-4.18757948 19.97312721 -2.37504767 19.95366285 -0.5625 19.9375 C0.44683594 19.92589844 1.45617187 19.91429687 2.49609375 19.90234375 C5 20 5 20 6 21 C7.7015625 21.185625 7.7015625 21.185625 9.4375 21.375 C10.613125 21.58125 11.78875 21.7875 13 22 C13.99 23.485 13.99 23.485 15 25 C11.04 25 7.08 25 3 25 C3 24.34 3 23.68 3 23 C-0.3 23 -3.6 23 -7 23 C-6.67 22.01 -6.34 21.02 -6 20 Z " fill="#BEBEBE" transform="translate(28,32)"/>
<path d="M0 0 C19.47 0 38.94 0 59 0 C59 2.97 59 5.94 59 9 C49.43 9 39.86 9 30 9 C30 8.34 30 7.68 30 7 C17.46 7 4.92 7 -8 7 C-8 7.66 -8 8.32 -8 9 C-40.34 9 -72.68 9 -106 9 C-106 8.01 -106 7.02 -106 6 C-104.78921783 5.98969254 -103.57843567 5.97938507 -102.33096313 5.96876526 C-90.94123802 5.87116705 -79.55156921 5.76844607 -68.16193581 5.66066074 C-62.30589332 5.60540831 -56.44984587 5.5519846 -50.59375 5.50268555 C-44.94625767 5.45507623 -39.29882752 5.40273469 -33.65140915 5.34705925 C-31.49277665 5.32662012 -29.33412709 5.30790966 -27.17546463 5.29092598 C-24.160696 5.26691645 -21.14604561 5.2368572 -18.13134766 5.20532227 C-17.23151657 5.1995668 -16.33168549 5.19381134 -15.40458679 5.18788147 C-11.06538294 5.26629518 -11.06538294 5.26629518 -7 4 C-7.495 3.01 -7.495 3.01 -8 2 C-5.36 1.67 -2.72 1.34 0 1 C0 0.67 0 0.34 0 0 Z " fill="#959595" transform="translate(106,74)"/>
<path d="M0 0 C15.51 0 31.02 0 47 0 C47 0.99 47 1.98 47 3 C31.16 3 15.32 3 -1 3 C-0.67 2.01 -0.34 1.02 0 0 Z M-5.4375 -0.0625 C-4.303125 -0.041875 -3.16875 -0.02125 -2 0 C-1.505 2.475 -1.505 2.475 -1 5 C-3.31 5 -5.62 5 -8 5 C-8 5.66 -8 6.32 -8 7 C-44.3 7 -80.6 7 -118 7 C-118 5.35 -118 3.7 -118 2 C-117.4443187 1.99576806 -116.88863741 1.99153612 -116.31611729 1.98717594 C-102.81318199 1.88400112 -89.31030076 1.77532023 -75.80745792 1.66066074 C-69.27766207 1.60538076 -62.74786178 1.55195279 -56.21801758 1.50268555 C-49.92214856 1.45511668 -43.62633598 1.40277687 -37.33053398 1.34705925 C-34.92266677 1.3266017 -32.51478405 1.30789439 -30.10688972 1.29092598 C-26.74706515 1.26695699 -23.38734839 1.23689253 -20.02758789 1.20532227 C-19.02130341 1.1995668 -18.01501892 1.19381134 -16.97824097 1.18788147 C-16.06813766 1.17809265 -15.15803436 1.16830383 -14.22035217 1.15821838 C-13.02709116 1.14853956 -13.02709116 1.14853956 -11.80972385 1.1386652 C-8.77863698 0.90641636 -9.19252343 0.0033776 -5.4375 -0.0625 Z " fill="#A5A5A5" transform="translate(118,96)"/>
<path d="M0 0 C0.9583374 0.00523682 1.9166748 0.01047363 2.90405273 0.01586914 C4.45576172 0.02070313 4.45576172 0.02070313 6.03881836 0.02563477 C7.12743164 0.03401367 8.21604492 0.04239258 9.33764648 0.05102539 C10.97636719 0.05779297 10.97636719 0.05779297 12.64819336 0.06469727 C15.3572008 0.07652699 18.06618028 0.09446308 20.77514648 0.11352539 C20.77514648 4.40352539 20.77514648 8.69352539 20.77514648 13.11352539 C12.85514648 13.11352539 4.93514648 13.11352539 -3.22485352 13.11352539 C-3.22485352 13.77352539 -3.22485352 14.43352539 -3.22485352 15.11352539 C-15.76485352 15.11352539 -28.30485352 15.11352539 -41.22485352 15.11352539 C-40.64225179 11.0353133 -40.05019316 7.12231796 -39.22485352 3.11352539 C-39.22485352 2.78352539 -39.22485352 2.45352539 -39.22485352 2.11352539 C-38.13954346 2.08846924 -37.0542334 2.06341309 -35.93603516 2.03759766 C-31.92353752 1.94368784 -27.91121969 1.84342773 -23.89892578 1.74121094 C-22.15971064 1.69779966 -20.42045116 1.65612927 -18.68115234 1.61621094 C-16.18646863 1.55865771 -13.69200942 1.49492119 -11.19750977 1.42993164 C-10.415215 1.41321915 -9.63292023 1.39650665 -8.82691956 1.37928772 C-5.48697338 1.28685176 -3.00282725 0.15322228 0 0 Z " fill="#ACACAC" transform="translate(144.224853515625,1.886474609375)"/>
<path d="M0 0 C0.99 0.33 1.98 0.66 3 1 C2.01 1.33 1.02 1.66 0 2 C0 1.34 0 0.68 0 0 Z M-15 2 C-10.05 2 -5.1 2 0 2 C-0.33 3.65 -0.66 5.3 -1 7 C-1.66 7.33 -2.32 7.66 -3 8 C-3.33 8.66 -3.66 9.32 -4 10 C-4.66 10.33 -5.32 10.66 -6 11 C-6 11.99 -6 12.98 -6 14 C-4.0412957 13.85923685 -2.08303907 13.7122324 -0.125 13.5625 C0.96554688 13.48128906 2.05609375 13.40007813 3.1796875 13.31640625 C5.94728971 13.16998297 5.94728971 13.16998297 8 12 C10.03232634 11.91472372 12.06747006 11.89283865 14.1015625 11.90234375 C15.31328125 11.90556641 16.525 11.90878906 17.7734375 11.91210938 C19.04445312 11.92048828 20.31546875 11.92886719 21.625 11.9375 C22.90375 11.94201172 24.1825 11.94652344 25.5 11.95117188 C28.66671292 11.96298797 31.83333356 11.97946185 35 12 C35 12.33 35 12.66 35 13 C27.74 13.33 20.48 13.66 13 14 C12.67 14.99 12.34 15.98 12 17 C14.97 17.33 17.94 17.66 21 18 C21 18.33 21 18.66 21 19 C1.86 19 -17.28 19 -37 19 C-37 14.05 -37 9.1 -37 4 C-29.74 4 -22.48 4 -15 4 C-15 3.34 -15 2.68 -15 2 Z " fill="#727272" transform="translate(37,43)"/>
<path d="M0 0 C12.21 0 24.42 0 37 0 C36.67 1.98 36.34 3.96 36 6 C24.12 6 12.24 6 0 6 C0 6.66 0 7.32 0 8 C-19.47 8 -38.94 8 -59 8 C-59 6.02 -59 4.04 -59 2 C-39.53 2 -20.06 2 0 2 C0 1.34 0 0.68 0 0 Z " fill="#646464" transform="translate(59,67)"/>
<path d="M0 0 C1.62215675 0.00333092 1.62215675 0.00333092 3.27708435 0.00672913 C4.49827469 0.00680466 5.71946503 0.00688019 6.97766113 0.00695801 C8.32022644 0.0120654 9.66279134 0.01728141 11.00535583 0.02259827 C12.37156116 0.02446252 13.73776716 0.02588639 15.10397339 0.02688599 C18.70596654 0.03071058 22.30791959 0.04054035 25.90989685 0.05158997 C29.58298703 0.06180536 33.25608368 0.06638388 36.92918396 0.07142639 C44.14079081 0.08216268 51.35236459 0.09923838 58.56394958 0.12025452 C58.56394958 1.11025452 58.56394958 2.10025452 58.56394958 3.12025452 C38.43394958 3.12025452 18.30394958 3.12025452 -2.43605042 3.12025452 C-2.43605042 3.78025452 -2.43605042 4.44025452 -2.43605042 5.12025452 C-36.75605042 5.12025452 -71.07605042 5.12025452 -106.43605042 5.12025452 C-106.43605042 4.13025452 -106.43605042 3.14025452 -106.43605042 2.12025452 C-105.14787918 2.10994705 -103.85970795 2.09963959 -102.53250122 2.08901978 C-90.42137578 1.99146878 -78.31030383 1.88875257 -66.19926548 1.78091526 C-59.97214127 1.72563638 -53.74501242 1.67220859 -47.51783752 1.62294006 C-41.51374 1.57536957 -35.50970163 1.5230297 -29.50567436 1.46731377 C-27.20945131 1.44685695 -24.91321201 1.42814951 -22.61696053 1.4111805 C-19.41279828 1.38720987 -16.20874902 1.35714565 -13.00465393 1.32557678 C-12.04512314 1.31982132 -11.08559235 1.31406586 -10.09698486 1.30813599 C-8.79493607 1.29345276 -8.79493607 1.29345276 -7.46658325 1.2784729 C-6.70794763 1.27202035 -5.949312 1.2655678 -5.16768742 1.25891972 C-2.76033264 1.06614471 -2.64721691 0.13067865 0 0 Z " fill="#A5A5A5" transform="translate(106.43605041503906,87.87974548339844)"/>
<path d="M0 0 C1.5631897 0.00785522 1.5631897 0.00785522 3.15795898 0.01586914 C4.28266602 0.0190918 5.40737305 0.02231445 6.56616211 0.02563477 C7.75016602 0.03401367 8.93416992 0.04239258 10.15405273 0.05102539 C11.34192383 0.05553711 12.52979492 0.06004883 13.75366211 0.06469727 C16.69967499 0.07652864 19.64558954 0.09301252 22.59155273 0.11352539 C22.59155273 2.42352539 22.59155273 4.73352539 22.59155273 7.11352539 C14.01155273 7.11352539 5.43155273 7.11352539 -3.40844727 7.11352539 C-3.40844727 7.77352539 -3.40844727 8.43352539 -3.40844727 9.11352539 C-13.30844727 9.11352539 -23.20844727 9.11352539 -33.40844727 9.11352539 C-33.40844727 7.46352539 -33.40844727 5.81352539 -33.40844727 4.11352539 C-33.73844727 4.44352539 -34.06844727 4.77352539 -34.40844727 5.11352539 C-36.42808925 5.18596592 -38.4501185 5.19729727 -40.47094727 5.17602539 C-42.12803711 5.16249023 -42.12803711 5.16249023 -43.81860352 5.14868164 C-44.67325195 5.13708008 -45.52790039 5.12547852 -46.40844727 5.11352539 C-46.40844727 5.77352539 -46.40844727 6.43352539 -46.40844727 7.11352539 C-57.95844727 7.11352539 -69.50844727 7.11352539 -81.40844727 7.11352539 C-81.40844727 5.46352539 -81.40844727 3.81352539 -81.40844727 2.11352539 C-80.43347794 2.10321793 -79.45850861 2.09291046 -78.45399475 2.08229065 C-69.28608412 1.98472594 -60.11824394 1.88200837 -50.95044804 1.77418613 C-46.23668368 1.71891491 -41.52291316 1.66548834 -36.80908203 1.61621094 C-32.26383823 1.56862915 -27.71867231 1.51628885 -23.17352104 1.46058464 C-21.43552007 1.44013296 -19.69749772 1.42142463 -17.9594593 1.40445137 C-15.5336035 1.38046935 -13.10789626 1.35040679 -10.68212891 1.31884766 C-9.59348541 1.31021446 -9.59348541 1.31021446 -8.48284912 1.30140686 C-5.20338568 1.25259568 -2.98422391 0.14066539 0 0 Z " fill="#DDDDDD" transform="translate(142.408447265625,63.886474609375)"/>
<path d="M0 0 C31.35 0 62.7 0 95 0 C94.67 0.66 94.34 1.32 94 2 C75.52 2.33 57.04 2.66 38 3 C37.34 4.65 36.68 6.3 36 8 C35.14535156 8.04898438 34.29070313 8.09796875 33.41015625 8.1484375 C32.30542969 8.22320312 31.20070313 8.29796875 30.0625 8.375 C28.96035156 8.44460937 27.85820312 8.51421875 26.72265625 8.5859375 C25.37494141 8.79089844 25.37494141 8.79089844 24 9 C23.67 9.66 23.34 10.32 23 11 C11.615 10.505 11.615 10.505 0 10 C0 6.7 0 3.4 0 0 Z " fill="#7D7D7D" transform="translate(0,30)"/>
<path d="M0 0 C19.8 0.495 19.8 0.495 40 1 C39.67 2.65 39.34 4.3 39 6 C39.33 6.66 39.66 7.32 40 8 C25.81 8.33 11.62 8.66 -3 9 C-3 8.34 -3 7.68 -3 7 C-35.01 6.67 -67.02 6.34 -100 6 C-100 5.67 -100 5.34 -100 5 C-90.76 5 -81.52 5 -72 5 C-72 4.34 -72 3.68 -72 3 C-48.24 3 -24.48 3 0 3 C0 2.01 0 1.02 0 0 Z M40 5 C48.25 5 56.5 5 65 5 C65 5.33 65 5.66 65 6 C52.625 6.495 52.625 6.495 40 7 C40 6.34 40 5.68 40 5 Z " fill="#282828" transform="translate(100,18)"/>
<path d="M0 0 C1.07636719 0.00322266 2.15273437 0.00644531 3.26171875 0.00976562 C4.38964844 0.01814453 5.51757812 0.02652344 6.6796875 0.03515625 C8.38318359 0.04192383 8.38318359 0.04192383 10.12109375 0.04882812 C12.93234388 0.0606401 15.7434898 0.07711118 18.5546875 0.09765625 C18.5546875 3.06765625 18.5546875 6.03765625 18.5546875 9.09765625 C9.9746875 9.09765625 1.3946875 9.09765625 -7.4453125 9.09765625 C-7.4453125 9.75765625 -7.4453125 10.41765625 -7.4453125 11.09765625 C-17.3453125 11.09765625 -27.2453125 11.09765625 -37.4453125 11.09765625 C-38.4353125 8.78765625 -39.4253125 6.47765625 -40.4453125 4.09765625 C-55.2953125 3.60265625 -55.2953125 3.60265625 -70.4453125 3.09765625 C-70.4453125 2.76765625 -70.4453125 2.43765625 -70.4453125 2.09765625 C-69.66048492 2.08734879 -68.87565735 2.07704132 -68.06704712 2.06642151 C-60.68008922 1.96854848 -53.29321704 1.86604872 -45.90639687 1.75831699 C-42.10852608 1.70309181 -38.3106476 1.64967247 -34.51269531 1.6003418 C-30.84923883 1.55269224 -27.18587704 1.50034925 -23.52253342 1.4447155 C-22.12308477 1.42429462 -20.72361015 1.40558108 -19.32411575 1.38858223 C-17.36787236 1.36453264 -15.41171301 1.33391503 -13.45556641 1.30297852 C-11.78344589 1.27966209 -11.78344589 1.27966209 -10.07754517 1.25587463 C-6.50338015 1.04103853 -3.73995779 -0.01968399 0 0 Z " fill="#C3C3C3" transform="translate(146.4453125,53.90234375)"/>
<path d="M0 0 C13.86 0 27.72 0 42 0 C41.67 0.99 41.34 1.98 41 3 C39.85934082 3.02505615 38.71868164 3.0501123 37.54345703 3.07592773 C33.32035659 3.16994293 29.09742291 3.27017787 24.87451172 3.37231445 C23.04512425 3.41568565 21.21569573 3.45735911 19.38623047 3.49731445 C16.75996514 3.55496418 14.1339069 3.61867365 11.5078125 3.68359375 C10.68693146 3.70030624 9.86605042 3.71701874 9.02029419 3.73423767 C4.8766304 3.7431387 4.8766304 3.7431387 1 5 C-2.05140373 5.09353676 -5.0798561 5.12571763 -8.13134766 5.11352539 C-9.07773605 5.11367142 -10.02412445 5.11381744 -10.99919128 5.1139679 C-14.13750475 5.11326942 -17.27575937 5.10548002 -20.4140625 5.09765625 C-22.58596769 5.09579184 -24.75787329 5.09436805 -26.92977905 5.09336853 C-32.65414587 5.08954516 -38.37848742 5.07971639 -44.10284424 5.06866455 C-49.94095518 5.05844657 -55.7790702 5.05387008 -61.6171875 5.04882812 C-73.07813611 5.03809398 -84.53906596 5.0210197 -96 5 C-96 4.01 -96 3.02 -96 2 C-64.32 2 -32.64 2 0 2 C0 1.34 0 0.68 0 0 Z " fill="#414141" transform="translate(96,75)"/>
<path d="M0 0 C12.54 0 25.08 0 38 0 C38 2.31 38 4.62 38 7 C38.495 7.99 38.495 7.99 39 9 C12.97855637 9.12174432 -12.99405651 8.94338975 -39 8 C-39 7.01 -39 6.02 -39 5 C-35.535 4.505 -35.535 4.505 -32 4 C-32 3.67 -32 3.34 -32 3 C-16.655 2.505 -16.655 2.505 -1 2 C-0.67 1.34 -0.34 0.68 0 0 Z M39 6 C47.58 6 56.16 6 65 6 C65 6.33 65 6.66 65 7 C56.42 7.33 47.84 7.66 39 8 C39 7.34 39 6.68 39 6 Z " fill="#888888" transform="translate(100,57)"/>
<path d="M0 0 C1.00023193 0.00523682 2.00046387 0.01047363 3.03100586 0.01586914 C4.1105957 0.0190918 5.19018555 0.02231445 6.30249023 0.02563477 C8.00695312 0.03820312 8.00695312 0.03820312 9.74584961 0.05102539 C11.45611328 0.05779297 11.45611328 0.05779297 13.20092773 0.06469727 C16.02845312 0.07652792 18.85587601 0.09301129 21.68334961 0.11352539 C21.68334961 2.42352539 21.68334961 4.73352539 21.68334961 7.11352539 C13.43334961 7.11352539 5.18334961 7.11352539 -3.31665039 7.11352539 C-3.31665039 7.77352539 -3.31665039 8.43352539 -3.31665039 9.11352539 C-19.15665039 9.11352539 -34.99665039 9.11352539 -51.31665039 9.11352539 C-50.32665039 6.80352539 -49.33665039 4.49352539 -48.31665039 2.11352539 C-47.75510757 2.10321793 -47.19356476 2.09291046 -46.61500549 2.08229065 C-40.79171573 1.97444854 -34.96858775 1.85983332 -29.14550781 1.74121094 C-26.96976086 1.69779032 -24.79397825 1.65612068 -22.61816406 1.61621094 C-19.49801871 1.55868037 -16.37805406 1.49493717 -13.25805664 1.42993164 C-12.27889786 1.41321915 -11.29973907 1.39650665 -10.29090881 1.37928772 C-9.39005051 1.3593425 -8.4891922 1.33939728 -7.56103516 1.31884766 C-6.36523582 1.29553123 -6.36523582 1.29553123 -5.14527893 1.27174377 C-2.72742781 1.0625441 -2.58502209 0.12667671 0 0 Z " fill="#B4B4B4" transform="translate(143.316650390625,31.886474609375)"/>
<path d="M0 0 C54.45 0 108.9 0 165 0 C165 0.33 165 0.66 165 1 C157.08 1 149.16 1 141 1 C141 1.66 141 2.32 141 3 C126.04042058 3.04667842 111.08084679 3.0819684 96.1212101 3.10362434 C89.17550856 3.11394592 82.22985222 3.12802301 75.28417969 3.15087891 C68.58634186 3.17290879 61.88856078 3.1845554 55.19068527 3.18975449 C52.63011306 3.1934615 50.06954353 3.20069992 47.50899124 3.21146011 C43.93383385 3.22589196 40.35887304 3.22798143 36.78369141 3.22705078 C35.18147484 3.23783661 35.18147484 3.23783661 33.54689026 3.24884033 C32.57651321 3.246091 31.60613617 3.24334167 30.60635376 3.24050903 C29.33704482 3.24327441 29.33704482 3.24327441 28.04209328 3.24609566 C26 3 26 3 24 1 C24 1.66 24 2.32 24 3 C16.08 3 8.16 3 0 3 C0 2.01 0 1.02 0 0 Z " fill="#CCCCCC" transform="translate(0,0)"/>
<path d="M0 0 C33 0 66 0 100 0 C100 0.99 100 1.98 100 3 C76.24 3 52.48 3 28 3 C28 3.66 28 4.32 28 5 C18.76 5 9.52 5 0 5 C0 3.35 0 1.7 0 0 Z " fill="#7C7C7C" transform="translate(0,18)"/>
<path d="M0 0 C1.29422379 0.00212242 1.29422379 0.00212242 2.61459351 0.00428772 C5.3759098 0.00989437 8.13714562 0.02244798 10.8984375 0.03515625 C12.768228 0.04017039 14.63801976 0.04473345 16.5078125 0.04882812 C21.09638527 0.05986596 25.68489773 0.07713505 30.2734375 0.09765625 C29.6134375 0.42765625 28.9534375 0.75765625 28.2734375 1.09765625 C28.2734375 1.75765625 28.2734375 2.41765625 28.2734375 3.09765625 C27.6134375 3.75765625 26.9534375 4.41765625 26.2734375 5.09765625 C25.9434375 5.75765625 25.6134375 6.41765625 25.2734375 7.09765625 C33.5234375 7.09765625 41.7734375 7.09765625 50.2734375 7.09765625 C50.2734375 7.75765625 50.2734375 8.41765625 50.2734375 9.09765625 C40.7034375 9.09765625 31.1334375 9.09765625 21.2734375 9.09765625 C21.2734375 8.43765625 21.2734375 7.77765625 21.2734375 7.09765625 C18.6334375 7.09765625 15.9934375 7.09765625 13.2734375 7.09765625 C13.2734375 7.75765625 13.2734375 8.41765625 13.2734375 9.09765625 C9.53712107 11.49720169 6.24548252 11.32759312 1.8828125 11.29296875 C1.17819885 11.29013885 0.47358521 11.28730896 -0.25238037 11.28439331 C-2.4939501 11.27323426 -4.73511436 11.24813818 -6.9765625 11.22265625 C-8.49999421 11.21262089 -10.02343221 11.20349601 -11.546875 11.1953125 C-15.27356836 11.17330916 -19.00002583 11.13880897 -22.7265625 11.09765625 C-21.09584027 9.13850885 -20.17577416 8.19082335 -17.6418457 7.6652832 C-16.86156006 7.63909912 -16.08127441 7.61291504 -15.27734375 7.5859375 C-14.42978516 7.55048828 -13.58222656 7.51503906 -12.70898438 7.47851562 C-11.82791016 7.45595703 -10.94683594 7.43339844 -10.0390625 7.41015625 C-8.70004883 7.35891602 -8.70004883 7.35891602 -7.33398438 7.30664062 C-5.13163579 7.22419977 -2.92968312 7.15504074 -0.7265625 7.09765625 C-3.91140156 6.24224873 -6.67038854 5.99165396 -9.9765625 6.03515625 C-11.31460938 6.04869141 -11.31460938 6.04869141 -12.6796875 6.0625 C-13.35515625 6.07410156 -14.030625 6.08570313 -14.7265625 6.09765625 C-15.0565625 5.10765625 -15.3865625 4.11765625 -15.7265625 3.09765625 C-14.0765625 3.09765625 -12.4265625 3.09765625 -10.7265625 3.09765625 C-10.7265625 2.43765625 -10.7265625 1.77765625 -10.7265625 1.09765625 C-7.39500999 -0.56812 -3.66120191 -0.02242231 0 0 Z " fill="#919191" transform="translate(49.7265625,49.90234375)"/>
<path d="M0 0 C1.03125 0.00322266 2.0625 0.00644531 3.125 0.00976562 C4.20523438 0.01814453 5.28546875 0.02652344 6.3984375 0.03515625 C8.03039062 0.04192383 8.03039062 0.04192383 9.6953125 0.04882812 C12.38807539 0.06063849 15.08072938 0.07710847 17.7734375 0.09765625 C17.7734375 2.40765625 17.7734375 4.71765625 17.7734375 7.09765625 C9.5234375 7.09765625 1.2734375 7.09765625 -7.2265625 7.09765625 C-7.2265625 7.75765625 -7.2265625 8.41765625 -7.2265625 9.09765625 C-21.7465625 9.09765625 -36.2665625 9.09765625 -51.2265625 9.09765625 C-50.2365625 6.78765625 -49.2465625 4.47765625 -48.2265625 2.09765625 C-46.99502441 2.0726001 -45.76348633 2.04754395 -44.49462891 2.02172852 C-39.93608757 1.92773013 -35.37770132 1.8274911 -30.81933594 1.7253418 C-28.84443788 1.68196422 -26.86950163 1.64029125 -24.89453125 1.6003418 C-22.0597786 1.54270752 -19.22521872 1.47899355 -16.390625 1.4140625 C-15.50412262 1.39735001 -14.61762024 1.38063751 -13.70425415 1.36341858 C-8.8690362 1.24590972 -4.78941715 -0.02631548 0 0 Z " fill="#B3B3B3" transform="translate(147.2265625,23.90234375)"/>
<path d="M0 0 C32.34 0 64.68 0 98 0 C97.67 0.99 97.34 1.98 97 3 C73.9 3 50.8 3 27 3 C27 3.66 27 4.32 27 5 C18.09 5 9.18 5 0 5 C0 3.35 0 1.7 0 0 Z " fill="#A0A0A0" transform="translate(0,24)"/>
<path d="M0 0 C26.4 0 52.8 0 80 0 C80 1.32 80 2.64 80 4 C53.93 4 27.86 4 1 4 C1 4.66 1 5.32 1 6 C-7.25 6 -15.5 6 -24 6 C-24 4.68 -24 3.36 -24 2 C-16.08 2 -8.16 2 0 2 C0 1.34 0 0.68 0 0 Z " fill="#5F5F5F" transform="translate(24,1)"/>
<path d="M0 0 C21.78 0 43.56 0 66 0 C66 0.33 66 0.66 66 1 C48.84 1 31.68 1 14 1 C14 1.66 14 2.32 14 3 C12.68 3 11.36 3 10 3 C10 2.34 10 1.68 10 1 C6.7 1 3.4 1 0 1 C0 0.67 0 0.34 0 0 Z M14 4 C14 4.33 14 4.66 14 5 C12.35 5 10.7 5 9 5 C8.67 6.32 8.34 7.64 8 9 C4.04 9 0.08 9 -4 9 C-4 7 -4 7 -2 5 C-2 4.67 -2 4.34 -2 4 C-0.27185839 3.80327635 1.45759197 3.61803201 3.1875 3.4375 C4.15042969 3.33308594 5.11335938 3.22867188 6.10546875 3.12109375 C8.94233377 3.00241249 11.25423671 3.32234361 14 4 Z M-28 8 C-24.18751574 7.97112764 -20.3750593 7.95324508 -16.5625 7.9375 C-15.47388672 7.92912109 -14.38527344 7.92074219 -13.26367188 7.91210938 C-12.22919922 7.90888672 -11.19472656 7.90566406 -10.12890625 7.90234375 C-9.17056885 7.89710693 -8.21223145 7.89187012 -7.22485352 7.88647461 C-5 8 -5 8 -4 9 C-1.98405418 9.23427778 0.038474 9.41336124 2.0625 9.5625 C3.16722656 9.64628906 4.27195313 9.73007812 5.41015625 9.81640625 C6.26480469 9.87699219 7.11945312 9.93757813 8 10 C8 10.99 8 11.98 8 13 C3.38 13 -1.24 13 -6 13 C-6 13.66 -6 14.32 -6 15 C-13.26 15 -20.52 15 -28 15 C-28 12.69 -28 10.38 -28 8 Z " fill="#AAAAAA" transform="translate(28,32)"/>
<path d="M0 0 C1.11234512 -0.00021904 1.11234512 -0.00021904 2.24716187 -0.0004425 C4.70370385 0.00025539 7.16017045 0.00804206 9.61669922 0.01586914 C11.31777912 0.01773376 13.01885956 0.01915745 14.71994019 0.02015686 C19.20145139 0.02397861 23.68293029 0.03380599 28.16442871 0.04486084 C32.73575402 0.05508231 37.30708453 0.05965606 41.87841797 0.06469727 C50.85108843 0.07542854 59.82373489 0.09250088 68.79638672 0.11352539 C68.79638672 1.10352539 68.79638672 2.09352539 68.79638672 3.11352539 C43.38638672 3.11352539 17.97638672 3.11352539 -8.20361328 3.11352539 C-8.20361328 3.77352539 -8.20361328 4.43352539 -8.20361328 5.11352539 C-16.78361328 5.11352539 -25.36361328 5.11352539 -34.20361328 5.11352539 C-34.20361328 4.12352539 -34.20361328 3.13352539 -34.20361328 2.11352539 C-33.0833374 2.07594116 -33.0833374 2.07594116 -31.94042969 2.03759766 C-28.56964061 1.92184326 -25.19914545 1.79902411 -21.82861328 1.67602539 C-20.65298828 1.63670898 -19.47736328 1.59739258 -18.26611328 1.55688477 C-17.14462891 1.51499023 -16.02314453 1.4730957 -14.86767578 1.42993164 C-13.83078613 1.39327393 -12.79389648 1.35661621 -11.72558594 1.31884766 C-7.71248201 0.99212738 -4.20070995 -0.02146901 0 0 Z " fill="#A7A7A7" transform="translate(34.20361328125,5.886474609375)"/>
<path d="M0 0 C14.19 0 28.38 0 43 0 C43 0.66 43 1.32 43 2 C61.48 2 79.96 2 99 2 C98.67 2.99 98.34 3.98 98 5 C98.495 5.99 98.495 5.99 99 7 C77.88 7.33 56.76 7.66 35 8 C35 7.34 35 6.68 35 6 C24.77 5.67 14.54 5.34 4 5 C4 4.67 4 4.34 4 4 C15.22 4 26.44 4 38 4 C38 3.34 38 2.68 38 2 C25.46 1.67 12.92 1.34 0 1 C0 0.67 0 0.34 0 0 Z M99 4 C107.58 4 116.16 4 125 4 C125 4.33 125 4.66 125 5 C116.42 5.33 107.84 5.66 99 6 C99 5.34 99 4.68 99 4 Z " fill="#000000" transform="translate(40,49)"/>
<path d="M0 0 C2.64 0 5.28 0 8 0 C8 0.66 8 1.32 8 2 C17.24 2 26.48 2 36 2 C35.67 2.99 35.34 3.98 35 5 C22.13 5.33 9.26 5.66 -4 6 C-4 6.66 -4 7.32 -4 8 C-23.47 8 -42.94 8 -63 8 C-63 7.01 -63 6.02 -63 5 C-34.29 4.505 -34.29 4.505 -5 4 C-5 3.34 -5 2.68 -5 2 C-3.35 2 -1.7 2 0 2 C0 1.34 0 0.68 0 0 Z " fill="#848484" transform="translate(63,57)"/>
<path d="M0 0 C20.79 0 41.58 0 63 0 C63 1.65 63 3.3 63 5 C54.75 5 46.5 5 38 5 C38 5.66 38 6.32 38 7 C24.8 7 11.6 7 -2 7 C-1.34 4.69 -0.68 2.38 0 0 Z " fill="#CBCBCB" transform="translate(102,18)"/>
<path d="M0 0 C1.08308441 -0.00021904 1.08308441 -0.00021904 2.18804932 -0.0004425 C4.57966087 0.00025532 6.97119498 0.00804164 9.36279297 0.01586914 C11.01903236 0.01773378 12.67527231 0.01915747 14.33151245 0.02015686 C18.69465655 0.0239784 23.05776747 0.03380561 27.42089844 0.04486084 C31.87157746 0.05508275 36.32226184 0.05965615 40.77294922 0.06469727 C49.50864155 0.07542819 58.24430688 0.09250027 66.97998047 0.11352539 C66.97998047 1.10352539 66.97998047 2.09352539 66.97998047 3.11352539 C42.22998047 3.11352539 17.47998047 3.11352539 -8.02001953 3.11352539 C-8.02001953 3.77352539 -8.02001953 4.43352539 -8.02001953 5.11352539 C-16.93001953 5.11352539 -25.84001953 5.11352539 -35.02001953 5.11352539 C-35.02001953 4.45352539 -35.02001953 3.79352539 -35.02001953 3.11352539 C-26.44001953 3.11352539 -17.86001953 3.11352539 -9.02001953 3.11352539 C-9.02001953 2.45352539 -9.02001953 1.79352539 -9.02001953 1.11352539 C-6.03437167 -0.37929854 -3.33018235 -0.00564438 0 0 Z " fill="#9F9F9F" transform="translate(35.02001953125,9.886474609375)"/>
<path d="M0 0 C15.84 0 31.68 0 48 0 C48 0.99 48 1.98 48 3 C47.12343246 3.01213028 47.12343246 3.01213028 46.22915649 3.02450562 C40.16231025 3.11037564 34.09579741 3.20987075 28.02929688 3.31738281 C25.76340318 3.35573271 23.49744735 3.39057483 21.23144531 3.421875 C17.97959133 3.46739527 14.7281674 3.52541076 11.4765625 3.5859375 C10.45881744 3.59748871 9.44107239 3.60903992 8.39248657 3.62094116 C7.45166229 3.64081085 6.51083801 3.66068054 5.54150391 3.68115234 C4.29574081 3.70113785 4.29574081 3.70113785 3.02481079 3.7215271 C0.77386386 3.82335542 0.77386386 3.82335542 -1 6 C-1.33 5.34 -1.66 4.68 -2 4 C-4.31 4 -6.62 4 -9 4 C-9 3.34 -9 2.68 -9 2 C-6.03 2 -3.06 2 0 2 C0 1.34 0 0.68 0 0 Z M-117 4 C-81.36 4 -45.72 4 -9 4 C-9 4.33 -9 4.66 -9 5 C-44.64 5 -80.28 5 -117 5 C-117 4.67 -117 4.34 -117 4 Z " fill="#2D2D2D" transform="translate(117,93)"/>
<path d="M0 0 C7.92 0 15.84 0 24 0 C24 1.98 24 3.96 24 6 C16.08 6 8.16 6 0 6 C0 6.66 0 7.32 0 8 C-12.54 8 -25.08 8 -38 8 C-37.67 6.35 -37.34 4.7 -37 3 C-24.79 2.67 -12.58 2.34 0 2 C0 1.34 0 0.68 0 0 Z " fill="#AEAEAE" transform="translate(141,9)"/>
<path d="M0 0 C0.73943344 0.01797638 1.47886688 0.03595276 2.2407074 0.05447388 C3.42686142 0.05337868 3.42686142 0.05337868 4.63697815 0.05226135 C7.24021472 0.05573362 9.84164246 0.09457513 12.44456482 0.13381958 C14.25344872 0.14314905 16.06234528 0.15026453 17.87124634 0.15525818 C22.62431429 0.17431752 27.3766141 0.22340896 32.12937927 0.27877808 C36.9823823 0.32999363 41.83550986 0.35277713 46.68870544 0.37796021 C56.20531834 0.43152888 65.72136199 0.51682869 75.23753357 0.62210083 C75.23753357 1.61210083 75.23753357 2.60210083 75.23753357 3.62210083 C66.65753357 3.62210083 58.07753357 3.62210083 49.23753357 3.62210083 C49.23753357 4.28210083 49.23753357 4.94210083 49.23753357 5.62210083 C29.43753357 5.62210083 9.63753357 5.62210083 -10.76246643 5.62210083 C-5.19220562 0.05184002 -5.19220562 0.05184002 0 0 Z " fill="#DFDFDF" transform="translate(89.76246643066406,49.377899169921875)"/>
<path d="M0 0 C19.47 0 38.94 0 59 0 C59 1.65 59 3.3 59 5 C37.22 5 15.44 5 -7 5 C-7.33 4.01 -7.66 3.02 -8 2 C-5.36 1.67 -2.72 1.34 0 1 C0 0.67 0 0.34 0 0 Z " fill="#BFBFBF" transform="translate(106,74)"/>
<path d="M0 0 C1.134375 0.020625 2.26875 0.04125 3.4375 0.0625 C3.4375 1.0525 3.4375 2.0425 3.4375 3.0625 C-2.52606189 4.10303182 -8.31797451 4.19788885 -14.36303711 4.17602539 C-15.95927917 4.17624443 -15.95927917 4.17624443 -17.58776855 4.1764679 C-21.08848137 4.17577388 -24.58914029 4.16800545 -28.08984375 4.16015625 C-30.52364574 4.15829025 -32.95744811 4.15686721 -35.39125061 4.15586853 C-41.78464807 4.15205766 -48.17802268 4.14223959 -54.57141113 4.13116455 C-61.10033865 4.12091967 -67.62926988 4.11636432 -74.15820312 4.11132812 C-86.95964515 4.10061603 -99.76107136 4.08375009 -112.5625 4.0625 C-112.5625 3.4025 -112.5625 2.7425 -112.5625 2.0625 C-112.0068187 2.05826806 -111.45113741 2.05403612 -110.87861729 2.04967594 C-97.37568199 1.94650112 -83.87280076 1.83782023 -70.36995792 1.72316074 C-63.84016207 1.66788076 -57.31036178 1.61445279 -50.78051758 1.56518555 C-44.48464856 1.51761668 -38.18883598 1.46527687 -31.89303398 1.40955925 C-29.48516677 1.3891017 -27.07728405 1.37039439 -24.66938972 1.35342598 C-21.30956515 1.32945699 -17.94984839 1.29939253 -14.59008789 1.26782227 C-13.58380341 1.2620668 -12.57751892 1.25631134 -11.54074097 1.25038147 C-10.63063766 1.24059265 -9.72053436 1.23080383 -8.78285217 1.22071838 C-7.58959116 1.21103956 -7.58959116 1.21103956 -6.37222385 1.2011652 C-3.34113698 0.96891636 -3.75502343 0.0658776 0 0 Z " fill="#7F7F7F" transform="translate(112.5625,95.9375)"/>
<path d="M0 0 C9.24 0 18.48 0 28 0 C28 0.33 28 0.66 28 1 C39.88 1.33 51.76 1.66 64 2 C64 2.99 64 3.98 64 5 C43.54 5 23.08 5 2 5 C1.67 4.01 1.34 3.02 1 2 C1.99902344 2.01160156 2.99804688 2.02320312 4.02734375 2.03515625 C5.31769531 2.04417969 6.60804687 2.05320312 7.9375 2.0625 C9.86916016 2.07990234 9.86916016 2.07990234 11.83984375 2.09765625 C14.86298403 2.36532549 14.86298403 2.36532549 16 1 C10.72 1 5.44 1 0 1 C0 0.67 0 0.34 0 0 Z " fill="#979797" transform="translate(101,82)"/>
<path d="M0 0 C8.25 0 16.5 0 25 0 C25 1.32 25 2.64 25 4 C16.75 4 8.5 4 0 4 C0 4.66 0 5.32 0 6 C-16.83 6 -33.66 6 -51 6 C-50.34 5.01 -49.68 4.02 -49 3 C-46.89926147 2.60127258 -46.89926147 2.60127258 -44.27490234 2.56762695 C-43.29403656 2.54783279 -42.31317078 2.52803864 -41.30258179 2.50764465 C-39.71034286 2.49805977 -39.71034286 2.49805977 -38.0859375 2.48828125 C-37.00116119 2.47033005 -35.91638489 2.45237885 -34.79873657 2.43388367 C-31.32419761 2.3795769 -27.84979758 2.34581932 -24.375 2.3125 C-22.02341808 2.27934496 -19.67185454 2.24485702 -17.3203125 2.20898438 C-11.54699959 2.12383894 -5.77366913 2.05557568 0 2 C0 1.34 0 0.68 0 0 Z " fill="#B6B6B6" transform="translate(140,39)"/>
<path d="M0 0 C17.16 0 34.32 0 52 0 C51 3 51 3 49 5 C46.89926147 5.2784729 46.89926147 5.2784729 44.27490234 5.31884766 C42.80360367 5.34865219 42.80360367 5.34865219 41.30258179 5.37905884 C39.71034286 5.39638565 39.71034286 5.39638565 38.0859375 5.4140625 C36.45877304 5.44311172 36.45877304 5.44311172 34.79873657 5.4727478 C31.32423841 5.53266426 27.84970733 5.57897739 24.375 5.625 C22.02342282 5.66316865 19.67185979 5.70221971 17.3203125 5.7421875 C11.5470003 5.83837559 5.77360334 5.92338753 0 6 C-0.33 6.99 -0.66 7.98 -1 9 C-6.61 9 -12.22 9 -18 9 C-18 8.67 -18 8.34 -18 8 C-17.22914062 7.93941406 -16.45828125 7.87882812 -15.6640625 7.81640625 C-14.66117188 7.73261719 -13.65828125 7.64882813 -12.625 7.5625 C-11.62726562 7.48128906 -10.62953125 7.40007813 -9.6015625 7.31640625 C-7.02072387 7.15034374 -7.02072387 7.15034374 -5 6 C-4.34786708 3.97536745 -4.34786708 3.97536745 -4 2 C-2.68 2 -1.36 2 0 2 C0 1.34 0 0.68 0 0 Z " fill="#000000" transform="translate(42,33)"/>
<path d="M0 0 C8.58 0 17.16 0 26 0 C26 1.32 26 2.64 26 4 C17.42 4 8.84 4 0 4 C0 4.66 0 5.32 0 6 C-9.9 6 -19.8 6 -30 6 C-30 5.01 -30 4.02 -30 3 C-15.15 2.505 -15.15 2.505 0 2 C0 1.34 0 0.68 0 0 Z " fill="#A3A3A3" transform="translate(139,67)"/>
<path d="M0 0 C8.58 0 17.16 0 26 0 C26 1.32 26 2.64 26 4 C17.42 4 8.84 4 0 4 C0 4.66 0 5.32 0 6 C-9.9 6 -19.8 6 -30 6 C-30.33 5.01 -30.66 4.02 -31 3 C-16.15 2.505 -16.15 2.505 -1 2 C-0.67 1.34 -0.34 0.68 0 0 Z " fill="#A7A7A7" transform="translate(139,59)"/>
<path d="M0 0 C1.00023193 0.00523682 2.00046387 0.01047363 3.03100586 0.01586914 C4.1105957 0.0190918 5.19018555 0.02231445 6.30249023 0.02563477 C8.00695312 0.03820312 8.00695312 0.03820312 9.74584961 0.05102539 C11.45611328 0.05779297 11.45611328 0.05779297 13.20092773 0.06469727 C16.02845312 0.07652792 18.85587601 0.09301129 21.68334961 0.11352539 C21.68334961 1.10352539 21.68334961 2.09352539 21.68334961 3.11352539 C13.43334961 3.11352539 5.18334961 3.11352539 -3.31665039 3.11352539 C-3.31665039 3.77352539 -3.31665039 4.43352539 -3.31665039 5.11352539 C-18.49665039 5.11352539 -33.67665039 5.11352539 -49.31665039 5.11352539 C-48.98665039 4.12352539 -48.65665039 3.13352539 -48.31665039 2.11352539 C-47.75510757 2.10321793 -47.19356476 2.09291046 -46.61500549 2.08229065 C-40.79171573 1.97444854 -34.96858775 1.85983332 -29.14550781 1.74121094 C-26.96976086 1.69779032 -24.79397825 1.65612068 -22.61816406 1.61621094 C-19.49801871 1.55868037 -16.37805406 1.49493717 -13.25805664 1.42993164 C-12.27889786 1.41321915 -11.29973907 1.39650665 -10.29090881 1.37928772 C-9.39005051 1.3593425 -8.4891922 1.33939728 -7.56103516 1.31884766 C-6.36523582 1.29553123 -6.36523582 1.29553123 -5.14527893 1.27174377 C-2.72742781 1.0625441 -2.58502209 0.12667671 0 0 Z " fill="#D0D0D0" transform="translate(143.316650390625,31.886474609375)"/>
<path d="M0 0 C0 0.66 0 1.32 0 2 C1.9587043 1.85923685 3.91696093 1.7122324 5.875 1.5625 C6.96554688 1.48128906 8.05609375 1.40007813 9.1796875 1.31640625 C11.94728971 1.16998297 11.94728971 1.16998297 14 0 C16.03232634 -0.08527628 18.06747006 -0.10716135 20.1015625 -0.09765625 C21.31328125 -0.09443359 22.525 -0.09121094 23.7734375 -0.08789062 C25.04445312 -0.07951172 26.31546875 -0.07113281 27.625 -0.0625 C28.90375 -0.05798828 30.1825 -0.05347656 31.5 -0.04882812 C34.66671292 -0.03701203 37.83333356 -0.02053815 41 0 C41 0.33 41 0.66 41 1 C33.74 1.33 26.48 1.66 19 2 C18.67 2.99 18.34 3.98 18 5 C20.97 5.33 23.94 5.66 27 6 C27 6.33 27 6.66 27 7 C7.86 7 -11.28 7 -31 7 C-31 6.67 -31 6.34 -31 6 C-24.73 6 -18.46 6 -12 6 C-12 5.34 -12 4.68 -12 4 C-10.02 4 -8.04 4 -6 4 C-6 3.34 -6 2.68 -6 2 C-2.25 0 -2.25 0 0 0 Z " fill="#060606" transform="translate(31,55)"/>
<path d="M0 0 C11.55 0 23.1 0 35 0 C35.495 1.485 35.495 1.485 36 3 C4.65 3 -26.7 3 -59 3 C-59 2.67 -59 2.34 -59 2 C-39.53 2 -20.06 2 0 2 C0 1.34 0 0.68 0 0 Z " fill="#000000" transform="translate(59,73)"/>
<path d="M0 0 C1.03125 0.00322266 2.0625 0.00644531 3.125 0.00976562 C4.20523438 0.01814453 5.28546875 0.02652344 6.3984375 0.03515625 C8.03039062 0.04192383 8.03039062 0.04192383 9.6953125 0.04882812 C12.38807539 0.06063849 15.08072938 0.07710847 17.7734375 0.09765625 C17.7734375 1.08765625 17.7734375 2.07765625 17.7734375 3.09765625 C9.5234375 3.09765625 1.2734375 3.09765625 -7.2265625 3.09765625 C-7.2265625 3.75765625 -7.2265625 4.41765625 -7.2265625 5.09765625 C-21.0865625 5.09765625 -34.9465625 5.09765625 -49.2265625 5.09765625 C-48.8965625 4.10765625 -48.5665625 3.11765625 -48.2265625 2.09765625 C-46.99502441 2.0726001 -45.76348633 2.04754395 -44.49462891 2.02172852 C-39.93608757 1.92773013 -35.37770132 1.8274911 -30.81933594 1.7253418 C-28.84443788 1.68196422 -26.86950163 1.64029125 -24.89453125 1.6003418 C-22.0597786 1.54270752 -19.22521872 1.47899355 -16.390625 1.4140625 C-15.50412262 1.39735001 -14.61762024 1.38063751 -13.70425415 1.36341858 C-8.8690362 1.24590972 -4.78941715 -0.02631548 0 0 Z " fill="#D1D1D1" transform="translate(147.2265625,23.90234375)"/>
<path d="M0 0 C33 0 66 0 100 0 C100 0.33 100 0.66 100 1 C76.24 1 52.48 1 28 1 C28 1.66 28 2.32 28 3 C18.76 3 9.52 3 0 3 C0 2.01 0 1.02 0 0 Z " fill="#CDCDCD" transform="translate(0,18)"/>
<path d="M0 0 C34.32 0 68.64 0 104 0 C104 0.33 104 0.66 104 1 C77.6 1 51.2 1 24 1 C24 1.66 24 2.32 24 3 C16.08 3 8.16 3 0 3 C0 2.01 0 1.02 0 0 Z " fill="#FDFDFD" transform="translate(0,0)"/>
<path d="M0 0 C10.89 0 21.78 0 33 0 C33.495 2.475 33.495 2.475 34 5 C20.14 5 6.28 5 -8 5 C-7.67 4.01 -7.34 3.02 -7 2 C-3.535 1.505 -3.535 1.505 0 1 C0 0.67 0 0.34 0 0 Z M34 2 C42.58 2 51.16 2 60 2 C60 2.33 60 2.66 60 3 C51.42 3.33 42.84 3.66 34 4 C34 3.34 34 2.68 34 2 Z " fill="#000000" transform="translate(105,61)"/>
<path d="M0 0 C0.9583374 0.00523682 1.9166748 0.01047363 2.90405273 0.01586914 C4.45576172 0.02070313 4.45576172 0.02070313 6.03881836 0.02563477 C7.12743164 0.03401367 8.21604492 0.04239258 9.33764648 0.05102539 C10.97636719 0.05779297 10.97636719 0.05779297 12.64819336 0.06469727 C15.35723144 0.07652713 18.06616248 0.09300996 20.77514648 0.11352539 C20.77514648 1.10352539 20.77514648 2.09352539 20.77514648 3.11352539 C12.85514648 3.11352539 4.93514648 3.11352539 -3.22485352 3.11352539 C-3.22485352 3.77352539 -3.22485352 4.43352539 -3.22485352 5.11352539 C-15.10485352 5.11352539 -26.98485352 5.11352539 -39.22485352 5.11352539 C-39.22485352 4.12352539 -39.22485352 3.13352539 -39.22485352 2.11352539 C-38.13954346 2.08846924 -37.0542334 2.06341309 -35.93603516 2.03759766 C-31.92353752 1.94368784 -27.91121969 1.84342773 -23.89892578 1.74121094 C-22.15971064 1.69779966 -20.42045116 1.65612927 -18.68115234 1.61621094 C-16.18646863 1.55865771 -13.69200942 1.49492119 -11.19750977 1.42993164 C-10.415215 1.41321915 -9.63292023 1.39650665 -8.82691956 1.37928772 C-5.48697338 1.28685176 -3.00282725 0.15322228 0 0 Z " fill="#CBCBCB" transform="translate(144.224853515625,1.886474609375)"/>
<path d="M0 0 C1.29422379 0.00212242 1.29422379 0.00212242 2.61459351 0.00428772 C5.3759098 0.00989437 8.13714562 0.02244798 10.8984375 0.03515625 C12.768228 0.04017039 14.63801976 0.04473345 16.5078125 0.04882812 C21.09638527 0.05986596 25.68489773 0.07713505 30.2734375 0.09765625 C29.6134375 0.42765625 28.9534375 0.75765625 28.2734375 1.09765625 C28.2734375 1.75765625 28.2734375 2.41765625 28.2734375 3.09765625 C11.9384375 3.59265625 11.9384375 3.59265625 -4.7265625 4.09765625 C-4.7265625 4.75765625 -4.7265625 5.41765625 -4.7265625 6.09765625 C-8.0265625 6.09765625 -11.3265625 6.09765625 -14.7265625 6.09765625 C-15.0565625 5.10765625 -15.3865625 4.11765625 -15.7265625 3.09765625 C-14.0765625 3.09765625 -12.4265625 3.09765625 -10.7265625 3.09765625 C-10.7265625 2.43765625 -10.7265625 1.77765625 -10.7265625 1.09765625 C-7.39500999 -0.56812 -3.66120191 -0.02242231 0 0 Z " fill="#858585" transform="translate(49.7265625,49.90234375)"/>
<path d="M0 0 C1.5631897 0.00785522 1.5631897 0.00785522 3.15795898 0.01586914 C4.28266602 0.0190918 5.40737305 0.02231445 6.56616211 0.02563477 C7.75016602 0.03401367 8.93416992 0.04239258 10.15405273 0.05102539 C11.34192383 0.05553711 12.52979492 0.06004883 13.75366211 0.06469727 C16.69967499 0.07652864 19.64558954 0.09301252 22.59155273 0.11352539 C22.59155273 1.10352539 22.59155273 2.09352539 22.59155273 3.11352539 C14.01155273 3.11352539 5.43155273 3.11352539 -3.40844727 3.11352539 C-3.40844727 3.77352539 -3.40844727 4.43352539 -3.40844727 5.11352539 C-13.30844727 5.11352539 -23.20844727 5.11352539 -33.40844727 5.11352539 C-33.40844727 4.12352539 -33.40844727 3.13352539 -33.40844727 2.11352539 C-32.50489502 2.08846924 -31.60134277 2.06341309 -30.67041016 2.03759766 C-27.32880446 1.94265222 -23.98738475 1.84340918 -20.64599609 1.74121094 C-19.19780487 1.69780909 -17.74956072 1.65613795 -16.30126953 1.61621094 C-14.22355167 1.55863477 -12.14610153 1.49490511 -10.06860352 1.42993164 C-8.81700439 1.39327393 -7.56540527 1.35661621 -6.27587891 1.31884766 C-3.18357098 1.09742314 -2.94987364 0.13904625 0 0 Z " fill="#C6C6C6" transform="translate(142.408447265625,63.886474609375)"/>
<path d="M0 0 C3.96 0 7.92 0 12 0 C11.34 1.65 10.68 3.3 10 5 C9.14535156 5.04898438 8.29070313 5.09796875 7.41015625 5.1484375 C6.30542969 5.22320312 5.20070313 5.29796875 4.0625 5.375 C2.96035156 5.44460937 1.85820312 5.51421875 0.72265625 5.5859375 C-0.62505859 5.79089844 -0.62505859 5.79089844 -2 6 C-2.33 6.66 -2.66 7.32 -3 8 C-14.385 7.505 -14.385 7.505 -26 7 C-26 6.01 -26 5.02 -26 4 C-17.75 4 -9.5 4 -1 4 C-0.67 2.68 -0.34 1.36 0 0 Z " fill="#464646" transform="translate(26,33)"/>
<path d="M0 0 C0.99 0.33 1.98 0.66 3 1 C2.01 1.33 1.02 1.66 0 2 C0 1.34 0 0.68 0 0 Z M-15 2 C-10.05 2 -5.1 2 0 2 C-0.33 2.99 -0.66 3.98 -1 5 C-2.60681641 5.07347656 -2.60681641 5.07347656 -4.24609375 5.1484375 C-5.64325639 5.22345294 -7.0403905 5.2990013 -8.4375 5.375 C-9.14455078 5.4059375 -9.85160156 5.436875 -10.58007812 5.46875 C-12.39239188 5.57280629 -14.19817988 5.77919892 -16 6 C-16.33 6.66 -16.66 7.32 -17 8 C-23.6 7.67 -30.2 7.34 -37 7 C-37 6.01 -37 5.02 -37 4 C-29.74 4 -22.48 4 -15 4 C-15 3.34 -15 2.68 -15 2 Z " fill="#353535" transform="translate(37,43)"/>
<path d="M0 0 C-0.99 0.495 -0.99 0.495 -2 1 C-2 1.66 -2 2.32 -2 3 C-3.98 3 -5.96 3 -8 3 C-8 3.66 -8 4.32 -8 5 C-14.27 5 -20.54 5 -27 5 C-27 3.68 -27 2.36 -27 1 C-23.62511542 0.83094103 -20.25007637 0.66518231 -16.875 0.5 C-15.44800781 0.42845703 -15.44800781 0.42845703 -13.9921875 0.35546875 C-9.32313191 0.12850077 -4.67636296 -0.06298132 0 0 Z " fill="#7B7B7B" transform="translate(27,56)"/>
<path d="M0 0 C8.58 0 17.16 0 26 0 C26 0.99 26 1.98 26 3 C16.76 3 7.52 3 -2 3 C-1.34 2.67 -0.68 2.34 0 2 C0 1.34 0 0.68 0 0 Z " fill="#4F4F4F" transform="translate(139,71)"/>
<path d="M0 0 C8.25 0 16.5 0 25 0 C25 0.99 25 1.98 25 3 C16.75 3 8.5 3 0 3 C0 2.01 0 1.02 0 0 Z " fill="#A8A8A8" transform="translate(0,34)"/>
<path d="M0 0 C7.92 0 15.84 0 24 0 C24 0.99 24 1.98 24 3 C15.42 3 6.84 3 -2 3 C-1.34 2.67 -0.68 2.34 0 2 C0 1.34 0 0.68 0 0 Z " fill="#4F4F4F" transform="translate(141,15)"/>
<path d="M0 0 C8.25 0 16.5 0 25 0 C24.67 0.99 24.34 1.98 24 3 C16.08 3 8.16 3 0 3 C0 2.01 0 1.02 0 0 Z " fill="#A6A6A6" transform="translate(0,0)"/>
<path d="M0 0 C1.65 0 3.3 0 5 0 C5 0.66 5 1.32 5 2 C16.22 2 27.44 2 39 2 C39 2.33 39 2.66 39 3 C19.86 3 0.72 3 -19 3 C-19 2.67 -19 2.34 -19 2 C-12.73 2 -6.46 2 0 2 C0 1.34 0 0.68 0 0 Z " fill="#000000" transform="translate(19,59)"/>
<path d="M0 0 C1.09570312 0.00902344 2.19140625 0.01804687 3.3203125 0.02734375 C4.16335937 0.03894531 5.00640625 0.05054687 5.875 0.0625 C5.215 1.7125 4.555 3.3625 3.875 5.0625 C1.235 5.0625 -1.405 5.0625 -4.125 5.0625 C-4.455 5.7225 -4.785 6.3825 -5.125 7.0625 C-6.625 5.75 -6.625 5.75 -8.125 4.0625 C-8.125 3.0725 -8.125 2.0825 -8.125 1.0625 C-5.36047967 -0.31976016 -3.0788637 -0.03275387 0 0 Z " fill="#818181" transform="translate(112.125,89.9375)"/>
<path d="M0 0 C3.63 0 7.26 0 11 0 C10.01 1.485 10.01 1.485 9 3 C2.70715229 4.25141858 -3.604291 4.11984084 -10 4.0625 C-10.96550781 4.05798828 -11.93101563 4.05347656 -12.92578125 4.04882812 C-15.28392089 4.03715417 -17.64192602 4.02078021 -20 4 C-20 3.34 -20 2.68 -20 2 C-13.4 2 -6.8 2 0 2 C0 1.34 0 0.68 0 0 Z " fill="#4F4F4F" transform="translate(20,53)"/>
<path d="M0 0 C2.64 0 5.28 0 8 0 C8 0.66 8 1.32 8 2 C17.24 2 26.48 2 36 2 C36 2.33 36 2.66 36 3 C23.46 3 10.92 3 -2 3 C-1.34 2.67 -0.68 2.34 0 2 C0 1.34 0 0.68 0 0 Z " fill="#000000" transform="translate(63,57)"/>
<path d="M0 0 C4.62 0 9.24 0 14 0 C14 0.99 14 1.98 14 3 C12.68 3 11.36 3 10 3 C10 2.34 10 1.68 10 1 C6.7 1 3.4 1 0 1 C0 0.67 0 0.34 0 0 Z M14 4 C14 4.33 14 4.66 14 5 C12.35 5 10.7 5 9 5 C9 5.66 9 6.32 9 7 C5.37 7 1.74 7 -2 7 C-2 6.01 -2 5.02 -2 4 C-0.27185839 3.80327635 1.45759197 3.61803201 3.1875 3.4375 C4.15042969 3.33308594 5.11335938 3.22867188 6.10546875 3.12109375 C8.94233377 3.00241249 11.25423671 3.32234361 14 4 Z " fill="#B1B1B1" transform="translate(28,32)"/>
<path d="M0 0 C5.94 0 11.88 0 18 0 C17 2 17 2 16 3 C13.98035801 3.07244053 11.95832876 3.08377188 9.9375 3.0625 C8.28041016 3.04896484 8.28041016 3.04896484 6.58984375 3.03515625 C5.73519531 3.02355469 4.88054687 3.01195313 4 3 C3.67 3.99 3.34 4.98 3 6 C1.5 4.6875 1.5 4.6875 0 3 C0 2.01 0 1.02 0 0 Z " fill="#080808" transform="translate(99,83)"/>
<path d="M0 0 C8.91 0 17.82 0 27 0 C27 0.33 27 0.66 27 1 C16.11 1.495 16.11 1.495 5 2 C5 2.33 5 2.66 5 3 C3.02 3 1.04 3 -1 3 C-0.67 2.01 -0.34 1.02 0 0 Z " fill="#000000" transform="translate(45,55)"/>
<path d="M0 0 C0.99 0.33 1.98 0.66 3 1 C2.67 1.99 2.34 2.98 2 4 C1.34 4 0.68 4 0 4 C0 4.66 0 5.32 0 6 C-0.66 6 -1.32 6 -2 6 C-1.34 4.02 -0.68 2.04 0 0 Z M-5 6 C-3.68 6.33 -2.36 6.66 -1 7 C-1 7.66 -1 8.32 -1 9 C-1.639375 9.12375 -2.27875 9.2475 -2.9375 9.375 C-3.618125 9.58125 -4.29875 9.7875 -5 10 C-5.33 10.66 -5.66 11.32 -6 12 C-6.33 11.01 -6.66 10.02 -7 9 C-6.34 9 -5.68 9 -5 9 C-5 8.01 -5 7.02 -5 6 Z " fill="#151515" transform="translate(89,39)"/>
<path d="M0 0 C1.09570312 0.00902344 2.19140625 0.01804687 3.3203125 0.02734375 C4.16335937 0.03894531 5.00640625 0.05054687 5.875 0.0625 C4.885 1.5475 4.885 1.5475 3.875 3.0625 C1.81640625 3.3203125 1.81640625 3.3203125 -0.5625 3.1875 C-3.5846488 3.03813515 -5.19015164 3.08421721 -8.125 4.0625 C-8.125 3.0725 -8.125 2.0825 -8.125 1.0625 C-5.36047967 -0.31976016 -3.0788637 -0.03275387 0 0 Z " fill="#5D5D5D" transform="translate(112.125,89.9375)"/>
<path d="M0 0 C0 0.66 0 1.32 0 2 C4.62 1.67 9.24 1.34 14 1 C13.67 1.66 13.34 2.32 13 3 C10.28553021 3.31241455 7.66090639 3.51336592 4.9375 3.625 C4.17888672 3.66367187 3.42027344 3.70234375 2.63867188 3.7421875 C0.75952805 3.83673562 -1.12020336 3.91946756 -3 4 C-3.33 3.01 -3.66 2.02 -4 1 C-2 0 -2 0 0 0 Z " fill="#111111" transform="translate(31,55)"/>
<path d="M0 0 C2.31 0 4.62 0 7 0 C7 0.99 7 1.98 7 3 C4.36 3.33 1.72 3.66 -1 4 C-0.67 2.68 -0.34 1.36 0 0 Z " fill="#858585" transform="translate(109,96)"/>
</svg>
